<?xml version="1.0" encoding="utf-8"?>
<!-- Generator: Adobe Illustrator 22.0.1, SVG Export Plug-In . SVG Version: 6.00 Build 0)  -->
<svg version="1.1" id="Layer_1" xmlns="http://www.w3.org/2000/svg" xmlns:xlink="http://www.w3.org/1999/xlink" x="0px" y="0px"
	 viewBox="0 0 268.5 218.9" style="enable-background:new 0 0 268.5 218.9;" xml:space="preserve">
<style type="text/css">
	.st0{fill:#002E6E;}
	.st1{fill:#ED1C24;}
	.st2{enable-background:new    ;}
	.st3{fill:#2B2A29;}
</style>
<g transform="translate(-111.852 -250.887)">
	<g transform="translate(157.836 250.886)">
		<path class="st0" d="M113.2,45.5c-2.3,9.3-4.6,18.4-7,27.6H165c0.1,0.3,0.2,0.5,0.1,0.7c-1.3,5-2.7,10-4,14.9
			c-1.6,6.5-5.3,12.4-10.5,16.5c-4.8,3.7-10.8,5.7-16.9,5.5c-10.6-0.1-21.2-0.2-31.8-0.2c-0.7,0-1.4,0-2,0.1
			c-2.2,0.1-4.1,1.4-4.9,3.4c-0.4,0.9-0.7,1.9-1,2.9c-2,7.5-3.9,15-5.9,22.4c-1.3,5.1-3.8,9.8-7.3,13.7c-4.8,5.2-11.5,8.3-18.6,8.5
			c-9.1,0.3-18.2,0.1-27.3,0.1c-0.2,0-0.4-0.1-0.5-0.2c0.1-0.6,0.2-1.1,0.3-1.7c8.4-31,16.7-62.1,25.1-93.1c0.8-2.9,1.9-5.6,3.3-8.3
			c3.9-7.2,10.2-11.2,18.3-12.5c2-0.3,4-0.5,6.1-0.5c7.9-0.1,15.9,0,23.8,0C111.9,45.4,112.4,45.4,113.2,45.5z"/>
		<path class="st0" d="M113.5,45c0.9-3.4,1.7-6.5,2.6-9.7c1.3-4.4,2.5-8.8,4.1-13c3.9-10.1,12.2-15.7,23-16.1
			C158.7,5.6,174.3,6,189.8,6c0.6,0,1.2,0.1,1.7,0.1c0,0.3,0.1,0.4,0.1,0.5c-2.7,8-5.5,16-8.2,24.1c-0.3,0.8-0.7,1.6-1.1,2.4
			c-3.6,7.5-9.7,11.6-17.9,11.7C148,45.1,131.7,45,115.3,45C114.8,45.1,114.3,45.1,113.5,45z"/>
		<path class="st1" d="M85,6.6c0,0.3,0,0.6,0,0.9c-2.7,7.9-5.4,15.8-8.2,23.6c-2.9,8.5-11,14.1-20,14c-16.2,0-32.4-0.1-48.6-0.2
			c-0.3,0-0.5-0.1-1-0.1c0-0.5,0.1-1,0.2-1.6c1.3-5,2.5-10.2,4-15.2C14.5,16.7,21.5,9.3,33,6.6c2.2-0.5,4.4-0.7,6.7-0.6
			C52.9,6.1,66,6.4,79.2,6.6C81.1,6.6,83,6.6,85,6.6z"/>
	</g>
	<g class="st2">
		<path class="st3" d="M124.7,443.9c0-4.4,0-5.2-0.1-6c-0.1-1-0.3-1.4-1.2-1.6c-0.2-0.1-0.7-0.1-1-0.1c-0.1,0-0.2-0.1-0.2-0.2
			c0-0.2,0.1-0.2,0.4-0.2c0.6,0,1.4,0,2,0l1.1,0.1c0.6,0,6.2,0,6.9,0c0.5,0,1,0,1.2-0.1s0.3-0.2,0.4-0.2c0.1,0,0.2,0.1,0.2,0.3
			c0,0.2-0.1,0.5-0.2,1.3c0,0.3-0.1,1.5-0.1,1.8c0,0.1-0.1,0.3-0.2,0.3c-0.1,0-0.2-0.1-0.2-0.3c0-0.2-0.1-0.7-0.3-1.1
			s-0.8-0.9-1.9-0.9l-4.3-0.1c-0.2,0-0.3,0.1-0.3,0.3v7.7c0,0.2,0,0.3,0.2,0.3h3.6c0.5,0,0.9,0,1.3,0c0.7-0.1,1-0.1,1.3-0.5
			c0.1-0.1,0.2-0.3,0.3-0.3s0.1,0.1,0.1,0.2c0,0.2-0.1,0.6-0.2,1.6c-0.1,0.6-0.1,1.7-0.1,1.9c0,0.3,0,0.5-0.2,0.5
			c-0.1,0-0.2-0.1-0.2-0.3c0-0.3-0.1-0.7-0.2-1c-0.1-0.4-0.6-0.9-1.5-1c-0.7-0.1-3.8-0.1-4.2-0.1c-0.1,0-0.2,0.1-0.2,0.3v2.4
			c0,2.7,0,4.9,0.1,6.1c0.1,0.8,0.3,1.4,1.1,1.5c0.4,0.1,1,0.1,1.3,0.1c0.2,0,0.2,0.1,0.2,0.2s-0.1,0.2-0.4,0.2
			c-1.5,0-3.3-0.1-3.4-0.1s-1.9,0.1-2.7,0.1c-0.3,0-0.4-0.1-0.4-0.2s0.1-0.2,0.2-0.2c0.3,0,0.6-0.1,0.8-0.1c0.6-0.1,0.7-0.7,0.8-1.5
			c0.1-1.2,0.1-3.4,0.1-6.1L124.7,443.9L124.7,443.9z"/>
		<path class="st3" d="M143.5,439.4c0.3-0.8,0.4-0.9,0.6-0.9c0.3,0,0.3,0.3,0.6,0.9c0.4,1,4.4,10.8,5.9,14.4
			c0.9,2.1,1.6,2.4,2.1,2.6c0.4,0.1,0.7,0.1,1,0.1c0.1,0,0.3,0.1,0.3,0.2s-0.3,0.2-0.6,0.2c-0.4,0-2.2,0-3.9-0.1
			c-0.5,0-0.9,0-0.9-0.2c0-0.1,0.1-0.1,0.2-0.2c0.1-0.1,0.4-0.3,0.2-0.6l-2.2-5.5c-0.1-0.1-0.1-0.1-0.2-0.1h-5.7
			c-0.1,0-0.2,0.1-0.3,0.2l-1.4,3.8c-0.2,0.6-0.4,1.2-0.4,1.6c0,0.5,0.4,0.6,0.8,0.6h0.2c0.2,0,0.3,0.1,0.3,0.2s-0.1,0.2-0.4,0.2
			c-0.6,0-1.9-0.1-2.2-0.1s-1.5,0.1-2.5,0.1c-0.3,0-0.5-0.1-0.5-0.2s0.1-0.2,0.2-0.2c0.2,0,0.5,0,0.7-0.1c1.1-0.1,1.6-1,2.1-2.2
			L143.5,439.4z M146.2,449.4c0.1,0,0.1-0.1,0.1-0.2l-2.4-6.5c-0.1-0.4-0.3-0.4-0.4,0l-2.3,6.5c0,0.1,0,0.2,0.1,0.2H146.2z"/>
		<path class="st3" d="M157.2,445.9c0-3.7,0-4.4-0.1-5.1c-0.1-0.8-0.2-1.3-1-1.4c-0.2,0-0.6-0.1-0.8-0.1c-0.1,0-0.2-0.1-0.2-0.1
			c0-0.1,0.1-0.2,0.4-0.2c1.1,0,2.7,0.1,2.9,0.1c0.6,0,1.7-0.1,2.9-0.1c4.1,0,5.2,2.4,5.2,3.6c0,1.9-1.2,3.1-2.5,4.2
			c1.9,0.6,4.3,2.3,4.3,5s-2,5.3-6.2,5.3c-0.4,0-1.3,0-2.1-0.1c-0.8,0-1.5-0.1-1.6-0.1s-0.5,0-1,0s-1.1,0.1-1.5,0.1
			c-0.3,0-0.4-0.1-0.4-0.2s0.1-0.1,0.2-0.1c0.2,0,0.5-0.1,0.8-0.1c0.5-0.1,0.5-0.6,0.6-1.3c0.1-1,0.1-2.9,0.1-5.2L157.2,445.9
			L157.2,445.9z M159.3,446.4c0,0.2,0.1,0.2,0.2,0.3c0.1,0,0.6,0.1,1.5,0.1c1.4,0,1.9-0.1,2.4-0.6c0.5-0.6,1-1.4,1-2.5
			c0-1.8-1-3.8-3.5-3.8c-0.3,0-0.9,0-1.3,0.1c-0.2,0.1-0.3,0.1-0.3,0.3L159.3,446.4L159.3,446.4z M159.3,449c0,1.8,0,4.7,0,5.1
			c0.1,1.1,0.1,1.4,0.8,1.8c0.7,0.3,1.7,0.3,2.2,0.3c1.6,0,3.6-0.6,3.6-3.7c0-1.1-0.4-3.1-2.4-4.3c-0.8-0.5-1.6-0.5-2.2-0.6
			c-0.3-0.1-1.5-0.1-1.9-0.1c-0.1,0-0.1,0.1-0.1,0.2L159.3,449L159.3,449z"/>
		<path class="st3" d="M173.6,445.9c0-3.7,0-4.4-0.1-5.1c-0.1-0.8-0.2-1.2-1-1.3c-0.2,0-0.6-0.1-0.8-0.1c-0.1,0-0.2-0.1-0.2-0.2
			s0.1-0.2,0.4-0.2c1.1,0,2.8,0.1,2.9,0.1c0.3,0,2.3-0.1,3.1-0.1c1.6,0,3.3,0.1,4.6,1c0.6,0.4,1.7,1.6,1.7,3.2c0,1.8-0.7,3.5-3,5.4
			c2,2.5,3.7,4.7,5.2,6.2c1.3,1.3,2.1,1.6,2.7,1.7c0.5,0.1,0.7,0.1,0.9,0.1c0.1,0,0.2,0.1,0.2,0.2s-0.1,0.2-0.6,0.2H188
			c-1.4,0-2-0.1-2.6-0.5c-1.1-0.6-2-1.7-3.4-3.5c-1-1.3-2.1-2.8-2.7-3.5c-0.1-0.1-0.2-0.1-0.3-0.1l-3.1-0.1c-0.1,0-0.2,0.1-0.2,0.2
			v0.6c0,2.3,0,4.1,0.1,5.1c0.1,0.7,0.2,1.1,1,1.3c0.3,0.1,0.9,0.1,1.1,0.1c0.2,0,0.2,0.1,0.2,0.2s-0.1,0.2-0.4,0.2
			c-1.3,0-2.9-0.1-3-0.1c0,0-1.7,0.1-2.4,0.1c-0.3,0-0.4-0.1-0.4-0.2s0.1-0.2,0.2-0.2c0.2,0,0.5-0.1,0.8-0.1
			c0.5-0.1,0.5-0.6,0.6-1.3c0.1-1,0.1-2.9,0.1-5.2L173.6,445.9L173.6,445.9z M175.7,447.9c0,0.1,0.1,0.2,0.2,0.3
			c0.4,0.2,1.6,0.4,2.7,0.4c0.6,0,1.3,0,1.8-0.4c0.8-0.6,1.5-1.8,1.5-3.6c0-3-1.6-4.7-4.3-4.7c-0.7,0-1.5,0.1-1.8,0.1
			c-0.1,0.1-0.2,0.1-0.2,0.3v7.6H175.7z"/>
		<path class="st3" d="M194.6,450.1c0,2.3,0,4.2,0.1,5.2c0.1,0.7,0.2,1.1,0.9,1.3c0.4,0.1,0.9,0.1,1.1,0.1c0.1,0,0.2,0.1,0.2,0.2
			s-0.1,0.2-0.4,0.2c-1.4,0-3-0.1-3.1-0.1s-1.7,0.1-2.4,0.1c-0.3,0-0.4-0.1-0.4-0.2s0.1-0.2,0.2-0.2c0.2,0,0.5-0.1,0.8-0.1
			c0.5-0.1,0.6-0.6,0.6-1.3c0.1-1,0.1-2.9,0.1-5.2v-4.2c0-3.7,0-4.4-0.1-5.1c-0.1-0.8-0.3-1.2-0.8-1.3c-0.3-0.1-0.6-0.1-0.8-0.1
			c-0.1,0-0.2-0.1-0.2-0.2s0.1-0.2,0.4-0.2c0.8,0,2.4,0.1,2.5,0.1s1.7-0.1,2.5-0.1c0.3,0,0.4,0.1,0.4,0.2s-0.1,0.2-0.2,0.2
			c-0.2,0-0.3,0-0.6,0.1c-0.7,0.1-0.8,0.5-0.9,1.3c0,0.8,0,1.4,0,5.1L194.6,450.1L194.6,450.1z"/>
		<path class="st3" d="M203.1,454.7c-2.4-2.1-3-4.8-3-7.1c0-1.6,0.6-4.4,2.8-6.5c1.5-1.4,3.7-2.5,7.5-2.5c1,0,2.4,0.1,3.6,0.3
			c0.9,0.2,1.7,0.3,2.5,0.4c0.3,0,0.3,0.1,0.3,0.3c0,0.2-0.1,0.5-0.1,1.3s0,2.1-0.1,2.4c0,0.4-0.1,0.5-0.3,0.5s-0.2-0.2-0.2-0.5
			c0-0.9-0.4-1.9-1-2.4c-0.9-0.7-2.7-1.3-4.8-1.3c-3.2,0-4.7,0.8-5.5,1.7c-1.8,1.7-2.2,3.8-2.2,6.2c0,4.6,3.6,8.6,8.9,8.6
			c1.8,0,3.1-0.1,4.1-1.1c0.5-0.5,0.9-1.5,1-2c0.1-0.3,0.1-0.3,0.3-0.3c0.1,0,0.2,0.2,0.2,0.3s-0.3,2.2-0.6,3.1
			c-0.1,0.4-0.2,0.5-0.6,0.7c-1,0.4-2.9,0.5-4.5,0.5C207.5,457.3,205,456.4,203.1,454.7z"/>
		<path class="st3" d="M238.4,448.9c0,2.7,0,4.9,0.1,6.1c0.1,0.8,0.3,1.4,1.1,1.5c0.4,0.1,1,0.1,1.3,0.1c0.2,0,0.2,0.1,0.2,0.2
			s-0.1,0.2-0.4,0.2c-1.5,0-3.3-0.1-3.4-0.1c-0.1,0-1.9,0.1-2.7,0.1c-0.3,0-0.4-0.1-0.4-0.2s0.1-0.2,0.2-0.2c0.3,0,0.6-0.1,0.8-0.1
			c0.6-0.1,0.7-0.7,0.8-1.5c0.1-1.2,0.1-3.4,0.1-6.1V437l-4.1,0.1c-1.7,0-2.4,0.2-2.9,0.9c-0.3,0.5-0.4,0.7-0.5,0.9
			c-0.1,0.2-0.2,0.3-0.3,0.3s-0.1-0.1-0.1-0.3c0-0.3,0.6-2.7,0.6-2.9c0.1-0.2,0.2-0.5,0.3-0.5c0.2,0,0.5,0.3,1.2,0.3
			c0.8,0.1,1.9,0.1,2.2,0.1H243c0.9,0,1.5-0.1,2-0.1c0.4-0.1,0.7-0.1,0.8-0.1s0.1,0.2,0.1,0.3c0,0.8-0.1,2.8-0.1,3.1
			c0,0.3-0.1,0.4-0.2,0.4c-0.1,0-0.2-0.1-0.2-0.5v-0.3c-0.1-0.8-0.8-1.5-3.4-1.5l-3.5-0.1v11.8H238.4z"/>
		<path class="st3" d="M250.6,445.9c0-3.7,0-4.4-0.1-5.1c-0.1-0.8-0.2-1.2-1-1.3c-0.2,0-0.6-0.1-0.8-0.1c-0.1,0-0.2-0.1-0.2-0.2
			s0.1-0.2,0.4-0.2c1.1,0,2.7,0.1,2.9,0.1s5.3,0,5.9,0c0.5,0,0.9-0.1,1.1-0.1c0.1,0,0.2-0.1,0.3-0.1c0.1,0,0.1,0.1,0.1,0.2
			c0,0.2-0.1,0.4-0.2,1.1c0,0.2-0.1,1.3-0.1,1.6c0,0.1-0.1,0.3-0.2,0.3s-0.2-0.1-0.2-0.3c0-0.2,0-0.6-0.1-0.8
			c-0.2-0.4-0.4-0.6-1.8-0.7c-0.4-0.1-3.3-0.1-3.6-0.1c-0.1,0-0.1,0.1-0.1,0.3v6.5c0,0.2,0,0.3,0.1,0.3c0.3,0,3.6,0,4.1-0.1
			c0.6-0.1,1-0.1,1.2-0.3c0.2-0.2,0.3-0.3,0.4-0.3s0.1,0.1,0.1,0.2s-0.1,0.5-0.2,1.3c-0.1,0.5-0.1,1.4-0.1,1.5
			c0,0.2-0.1,0.4-0.2,0.4s-0.2-0.1-0.2-0.2c0-0.2,0-0.5-0.1-0.8s-0.3-0.6-1.3-0.7c-0.7-0.1-3.3-0.1-3.7-0.1c-0.1,0-0.2,0.1-0.2,0.2
			v2c0,0.8,0,3.6,0,4.1c0.1,1.6,0.5,1.9,2.9,1.9c0.6,0,1.8,0,2.5-0.3c0.6-0.3,1-0.7,1.1-1.7c0.1-0.3,0.1-0.4,0.3-0.4
			c0.1,0,0.2,0.2,0.2,0.4c0,0.2-0.2,1.8-0.3,2.3c-0.2,0.6-0.4,0.6-1.4,0.6c-1.8,0-3.3-0.1-4.3-0.1c-1-0.1-1.7-0.1-2-0.1
			c-0.1,0-0.5,0-1.1,0c-0.5,0-1,0.1-1.4,0.1c-0.3,0-0.4-0.1-0.4-0.2s0.1-0.2,0.2-0.2c0.2,0,0.5-0.1,0.8-0.1c0.5-0.1,0.5-0.6,0.6-1.3
			c0.1-1,0.1-2.9,0.1-5.2L250.6,445.9L250.6,445.9z"/>
		<path class="st3" d="M266,445.9c0-3.7,0-4.4-0.1-5.1c-0.1-0.8-0.2-1.2-1-1.3c-0.2,0-0.6-0.1-0.8-0.1c-0.1,0-0.2-0.1-0.2-0.2
			s0.1-0.2,0.4-0.2c1.1,0,2.8,0.1,2.9,0.1c0.3,0,2.3-0.1,3.1-0.1c1.6,0,3.3,0.1,4.6,1c0.6,0.4,1.7,1.6,1.7,3.2c0,1.8-0.7,3.5-3,5.4
			c2,2.5,3.7,4.7,5.2,6.2c1.3,1.3,2.1,1.6,2.7,1.7c0.5,0.1,0.7,0.1,0.9,0.1s0.2,0.1,0.2,0.2s-0.1,0.2-0.6,0.2h-1.5
			c-1.4,0-2-0.1-2.6-0.5c-1.1-0.6-2-1.7-3.4-3.5c-1-1.3-2.1-2.8-2.7-3.5c-0.1-0.1-0.2-0.1-0.3-0.1l-3.1-0.1c-0.1,0-0.2,0.1-0.2,0.2
			v0.6c0,2.3,0,4.1,0.1,5.1c0.1,0.7,0.2,1.1,1,1.3c0.3,0.1,0.9,0.1,1.1,0.1s0.2,0.1,0.2,0.2s-0.1,0.2-0.4,0.2c-1.3,0-2.9-0.1-3-0.1
			c0,0-1.7,0.1-2.4,0.1c-0.3,0-0.4-0.1-0.4-0.2s0.1-0.2,0.2-0.2c0.2,0,0.5-0.1,0.8-0.1c0.5-0.1,0.5-0.6,0.6-1.3
			c0.1-1,0.1-2.9,0.1-5.2v-4.1H266z M268.1,447.9c0,0.1,0.1,0.2,0.2,0.3c0.4,0.2,1.6,0.4,2.7,0.4c0.6,0,1.3,0,1.8-0.4
			c0.8-0.6,1.5-1.8,1.5-3.6c0-3-1.6-4.7-4.3-4.7c-0.7,0-1.5,0.1-1.8,0.1c-0.1,0.1-0.2,0.1-0.2,0.3L268.1,447.9L268.1,447.9z"/>
		<path class="st3" d="M303.3,453.9c0.1,0.8,0.3,2.1,1.3,2.5c0.7,0.2,1.3,0.2,1.6,0.2c0.1,0,0.2,0.1,0.2,0.2s-0.2,0.2-0.5,0.2
			c-0.6,0-3.3-0.1-4.2-0.1c-0.6-0.1-0.7-0.1-0.7-0.3c0-0.1,0.1-0.2,0.2-0.2s0.2-0.4,0.1-0.8l-1.2-12H300l-5.9,12.2
			c-0.5,1-0.6,1.3-0.9,1.3s-0.4-0.2-0.8-1.1c-0.6-1.2-2.3-4.2-2.9-5.5c-0.7-1.5-2.7-5.5-3.1-6.5h-0.1l-1,10.8c0,0.4,0,0.8,0,1.2
			c0,0.4,0.2,0.6,0.6,0.7s0.8,0.1,1,0.1c0.1,0,0.2,0.1,0.2,0.2c0,0.2-0.2,0.2-0.4,0.2c-0.9,0-2.1-0.1-2.3-0.1
			c-0.2,0-1.4,0.1-2.1,0.1c-0.3,0-0.4-0.1-0.4-0.2s0.1-0.2,0.3-0.2c0.2,0,0.4,0,0.7-0.1c0.8-0.1,0.8-1,1-1.9l1.8-15.5
			c0-0.3,0.1-0.4,0.3-0.4c0.2,0,0.4,0.1,0.5,0.4l7.4,14.8l7.2-14.8c0.1-0.2,0.2-0.4,0.4-0.4s0.3,0.2,0.4,0.6L303.3,453.9z"/>
		<path class="st3" d="M312.9,450.1c0,2.3,0,4.2,0.1,5.2c0.1,0.7,0.2,1.1,0.9,1.3c0.4,0.1,0.9,0.1,1.1,0.1c0.1,0,0.2,0.1,0.2,0.2
			s-0.1,0.2-0.4,0.2c-1.4,0-3-0.1-3.1-0.1s-1.7,0.1-2.4,0.1c-0.3,0-0.4-0.1-0.4-0.2s0.1-0.2,0.2-0.2c0.2,0,0.5-0.1,0.8-0.1
			c0.5-0.1,0.6-0.6,0.6-1.3c0.1-1,0.1-2.9,0.1-5.2v-4.2c0-3.7,0-4.4-0.1-5.1c-0.1-0.8-0.3-1.2-0.8-1.3c-0.3-0.1-0.6-0.1-0.8-0.1
			c-0.1,0-0.2-0.1-0.2-0.2s0.1-0.2,0.4-0.2c0.8,0,2.4,0.1,2.5,0.1s1.7-0.1,2.5-0.1c0.3,0,0.4,0.1,0.4,0.2s-0.1,0.2-0.2,0.2
			c-0.2,0-0.3,0-0.6,0.1c-0.7,0.1-0.8,0.5-0.9,1.3c0,0.8,0,1.4,0,5.1L312.9,450.1L312.9,450.1z"/>
		<path class="st3" d="M322.1,453.7c0.1,2,0.3,2.5,1,2.7c0.4,0.1,1,0.1,1.2,0.1c0.1,0,0.2,0.1,0.2,0.2s-0.2,0.2-0.4,0.2
			c-1.4,0-2.4-0.1-2.6-0.1s-1.3,0.1-2.4,0.1c-0.3,0-0.4,0-0.4-0.2c0-0.1,0.1-0.2,0.2-0.2c0.2,0,0.6,0,1-0.1c0.6-0.2,0.7-0.8,0.7-3
			v-13.6c0-1,0.1-1.2,0.3-1.2c0.3,0,0.7,0.5,1,0.7c0.4,0.4,4,4.2,7.8,8.1c2.4,2.5,5.1,5.3,5.8,6.1l-0.3-11.9c0-1.5-0.2-2.1-0.9-2.2
			c-0.4-0.1-1-0.1-1.2-0.1s-0.2-0.1-0.2-0.2s0.2-0.2,0.5-0.2c1.1,0,2.3,0.1,2.6,0.1c0.3,0,1.1-0.1,2.1-0.1c0.3,0,0.4,0,0.4,0.2
			c0,0.1-0.1,0.2-0.3,0.2c-0.1,0-0.3,0-0.6,0.1c-0.8,0.2-0.9,0.6-0.9,2.1l-0.1,13.9c0,1.6,0,1.7-0.2,1.7c-0.3,0-0.5-0.2-1.9-1.5
			c-0.3-0.2-3.8-3.7-6.4-6.4c-2.9-3-5.6-5.9-6.4-6.7L322.1,453.7z"/>
		<path class="st3" d="M348.1,439.4c0.3-0.8,0.4-0.9,0.6-0.9c0.3,0,0.3,0.3,0.6,0.9c0.4,1,4.4,10.8,5.9,14.4
			c0.9,2.1,1.6,2.4,2.1,2.6c0.4,0.1,0.7,0.1,1,0.1c0.1,0,0.3,0.1,0.3,0.2s-0.3,0.2-0.6,0.2c-0.4,0-2.2,0-3.9-0.1
			c-0.5,0-0.9,0-0.9-0.2c0-0.1,0.1-0.1,0.2-0.2s0.4-0.3,0.2-0.6l-2.2-5.5c-0.1-0.1-0.1-0.1-0.2-0.1h-5.7c-0.1,0-0.2,0.1-0.3,0.2
			l-1.4,3.8c-0.2,0.6-0.4,1.2-0.4,1.6c0,0.5,0.4,0.6,0.8,0.6h0.2c0.2,0,0.3,0.1,0.3,0.2s-0.1,0.2-0.4,0.2c-0.6,0-1.9-0.1-2.2-0.1
			c-0.3,0-1.5,0.1-2.5,0.1c-0.3,0-0.5-0.1-0.5-0.2s0.1-0.2,0.2-0.2c0.2,0,0.5,0,0.7-0.1c1.1-0.1,1.6-1,2.1-2.2L348.1,439.4z
			 M350.9,449.4c0.1,0,0.1-0.1,0.1-0.2l-2.4-6.5c-0.1-0.4-0.3-0.4-0.4,0l-2.3,6.5c0,0.1,0,0.2,0.1,0.2H350.9z"/>
		<path class="st3" d="M364.1,450.1c0,3.5,0.1,4.9,0.5,5.3s1.3,0.6,3.3,0.6c1.3,0,2.4,0,3-0.7c0.3-0.4,0.5-0.9,0.6-1.3
			c0-0.2,0.1-0.3,0.3-0.3c0.1,0,0.2,0.1,0.2,0.4s-0.2,1.7-0.4,2.4c-0.2,0.6-0.3,0.6-1.6,0.6c-1.8,0-3.1,0-4.3-0.1
			c-1.1,0-2-0.1-2.7-0.1c-0.1,0-0.5,0-1,0s-1,0.1-1.4,0.1c-0.3,0-0.4-0.1-0.4-0.2s0.1-0.2,0.2-0.2c0.2,0,0.5-0.1,0.8-0.1
			c0.5-0.1,0.5-0.6,0.6-1.3c0.1-1,0.1-2.9,0.1-5.2v-4.2c0-3.7,0-4.4-0.1-5.1c-0.1-0.8-0.2-1.2-1-1.3c-0.2,0-0.6-0.1-0.8-0.1
			c-0.1,0-0.2-0.1-0.2-0.2s0.1-0.2,0.4-0.2c1.1,0,2.7,0.1,2.8,0.1c0.1,0,2-0.1,2.7-0.1c0.3,0,0.4,0.1,0.4,0.2s-0.1,0.2-0.2,0.2
			c-0.2,0-0.5,0-0.8,0.1c-0.7,0.1-0.9,0.5-0.9,1.3s0,1.4,0,5.1v4.3H364.1z"/>
	</g>
</g>
</svg>
